<?xml version="1.0" standalone="no"?>
<!DOCTYPE svg PUBLIC "-//W3C//DTD SVG 20010904//EN"
 "http://www.w3.org/TR/2001/REC-SVG-20010904/DTD/svg10.dtd">
<svg version="1.0" xmlns="http://www.w3.org/2000/svg"
 width="300.000000pt" height="158.000000pt" viewBox="0 0 300.000000 158.000000"
 preserveAspectRatio="xMidYMid meet">
<metadata>
Created by potrace 1.10, written by Peter Selinger 2001-2011
</metadata>
<g transform="translate(0.000000,158.000000) scale(0.100000,-0.100000)"
fill="#000000" stroke="none">
<path d="M30 1255 c0 -3 0 -184 0 -402 l0 -398 320 -3 320 -2 0 85 0 85 -52 0
-52 0 49 50 48 49 -71 76 c-40 41 -72 79 -72 84 0 5 34 41 77 79 l76 70 -42
51 c-24 28 -48 51 -55 51 -6 0 -38 -27 -71 -61 -92 -93 -85 -93 -169 -3 l-72
78 -47 -39 c-26 -22 -47 -44 -47 -49 0 -6 19 9 43 32 l43 42 79 -80 79 -79 81
74 82 74 36 -37 c21 -21 37 -43 37 -49 0 -6 -35 -43 -77 -81 l-77 -70 77 -84
76 -84 -46 -39 -46 -39 -72 79 -72 78 -29 -20 c-16 -12 -53 -46 -83 -77 l-55
-56 -43 45 -43 45 82 78 81 79 -81 85 -82 85 0 102 0 101 -65 0 c-36 0 -65 -2
-65 -5z m105 -102 c4 -43 6 -100 4 -128 -1 -27 -2 -93 -1 -145 1 -52 2 -132 2
-177 1 -59 5 -85 16 -94 17 -14 340 -24 376 -11 13 5 42 5 64 0 39 -8 42 -11
46 -46 7 -78 31 -73 -295 -70 l-292 3 -3 360 c-1 198 0 366 3 372 2 7 20 13
38 13 l34 0 8 -77z m170 -268 c0 -2 -33 -33 -72 -70 l-73 -67 0 147 0 147 73
-78 c39 -42 72 -78 72 -79z m179 -185 l77 -80 -200 0 -201 0 0 47 0 47 44 -43
43 -42 79 75 c43 41 79 75 80 76 0 0 35 -36 78 -80z"/>
<path d="M1393 1177 c-59 -11 -67 -22 -24 -32 l30 -6 1 -240 0 -241 -30 -11
c-51 -19 -34 -27 60 -27 91 0 112 8 64 26 l-25 9 1 268 c0 211 -2 267 -12 266
-7 -1 -37 -6 -65 -12z"/>
<path d="M1175 1140 c-37 -41 24 -97 63 -58 18 18 14 56 -7 68 -27 14 -35 13
-56 -10z"/>
<path d="M1616 1144 c-29 -29 -13 -74 25 -74 21 0 49 26 49 45 0 18 -27 45
-45 45 -7 0 -21 -7 -29 -16z"/>
<path d="M700 1144 c0 -3 13 -10 29 -15 22 -8 30 -18 35 -47 8 -49 8 -327 0
-385 -6 -40 -10 -47 -35 -52 -69 -15 -5 -25 165 -25 l184 0 7 66 c4 36 4 68 1
71 -8 8 -9 6 -38 -51 l-25 -48 -91 -2 -92 -1 0 233 0 233 30 6 c61 12 27 23
-70 23 -55 0 -100 -2 -100 -6z"/>
<path d="M1173 967 c-60 -12 -67 -22 -23 -32 l30 -7 0 -138 0 -138 -30 -7
c-58 -13 -29 -25 60 -25 87 0 117 11 65 24 l-25 6 0 165 c0 126 -3 165 -12
163 -7 0 -37 -6 -65 -11z"/>
<path d="M1613 967 c-58 -11 -67 -21 -28 -31 l25 -6 0 -140 0 -140 -25 -6
c-52 -13 -22 -24 65 -24 94 0 111 8 59 27 l-30 12 3 160 c2 104 -1 161 -7 160
-5 -1 -34 -6 -62 -12z"/>
<path d="M1855 966 c-45 -13 -58 -44 -15 -36 95 18 146 -5 152 -70 l3 -35 -66
-7 c-109 -10 -149 -41 -149 -113 0 -76 84 -114 170 -78 46 19 47 19 59 2 13
-22 22 -23 74 -8 44 12 48 26 10 31 l-28 3 -5 130 c-3 72 -9 137 -13 146 -22
44 -108 61 -192 35z m135 -238 c-5 -61 -6 -63 -35 -69 -36 -6 -85 6 -97 23
-12 20 -10 62 5 82 11 15 109 38 127 30 3 -1 3 -31 0 -66z"/>
<path d="M2203 967 c-60 -12 -67 -22 -23 -32 l30 -7 0 -138 0 -138 -30 -7
c-58 -13 -29 -25 60 -25 87 0 117 11 65 24 l-25 6 0 135 c0 129 1 134 22 141
45 14 99 7 121 -15 20 -19 22 -34 25 -141 l4 -119 -26 -7 c-52 -13 -24 -24 59
-24 89 0 105 8 55 27 l-30 11 0 131 c0 121 -2 132 -23 156 -32 38 -98 44 -161
17 -45 -21 -46 -21 -46 -1 0 21 0 21 -77 6z"/>
</g>
</svg>
